<?xml version="1.0" encoding="UTF-8" standalone="no"?>
<!DOCTYPE svg PUBLIC "-//W3C//DTD SVG 1.1//EN"
 "http://www.w3.org/Graphics/SVG/1.1/DTD/svg11.dtd">
<!-- Generated by graphviz version 2.36.0 (20140111.2315)
 -->
<!-- Title: DirectedSample Pages: 1 -->
<svg width="176pt" height="302pt"
 viewBox="0.00 0.00 176.00 302.00" xmlns="http://www.w3.org/2000/svg" xmlns:xlink="http://www.w3.org/1999/xlink">
<g id="graph0" class="graph" transform="scale(1 1) rotate(0) translate(4 298)">
<title>DirectedSample</title>
<polygon fill="white" stroke="none" points="-4,4 -4,-298 172,-298 172,4 -4,4"/>
<!-- A -->
<g id="node1" class="node"><title>A</title>
<ellipse fill="none" stroke="black" cx="141" cy="-276" rx="27" ry="18"/>
<text text-anchor="middle" x="141" y="-271.8" font-family="Times,serif" font-size="14.00">A</text>
</g>
<!-- B -->
<g id="node2" class="node"><title>B</title>
<ellipse fill="none" stroke="black" cx="94" cy="-190" rx="27" ry="18"/>
<text text-anchor="middle" x="94" y="-185.8" font-family="Times,serif" font-size="14.00">B</text>
</g>
<!-- A&#45;&gt;B -->
<g id="edge1" class="edge"><title>A&#45;&gt;B</title>
<path fill="none" stroke="black" d="M131.938,-258.804C125.176,-246.718 115.81,-229.979 108.076,-216.157"/>
<polygon fill="black" stroke="black" points="110.972,-214.164 103.034,-207.146 104.863,-217.582 110.972,-214.164"/>
<text text-anchor="middle" x="124.5" y="-228.8" font-family="Times,serif" font-size="14.00">1</text>
</g>
<!-- C -->
<g id="node3" class="node"><title>C</title>
<ellipse fill="none" stroke="black" cx="124" cy="-18" rx="27" ry="18"/>
<text text-anchor="middle" x="124" y="-13.8" font-family="Times,serif" font-size="14.00">C</text>
</g>
<!-- B&#45;&gt;C -->
<g id="edge2" class="edge"><title>B&#45;&gt;C</title>
<path fill="none" stroke="black" d="M97.516,-171.929C98.6619,-166.234 99.917,-159.849 101,-154 107.916,-116.645 115.159,-73.3265 119.627,-46.0427"/>
<polygon fill="black" stroke="black" points="123.097,-46.5095 121.252,-36.0766 116.188,-45.3829 123.097,-46.5095"/>
<text text-anchor="middle" x="121.75" y="-99.8" font-family="Times,serif" font-size="14.00">0.5</text>
</g>
<!-- E -->
<g id="node5" class="node"><title>E</title>
<ellipse fill="none" stroke="black" cx="61" cy="-104" rx="27" ry="18"/>
<text text-anchor="middle" x="61" y="-99.8" font-family="Times,serif" font-size="14.00">E</text>
</g>
<!-- B&#45;&gt;E -->
<g id="edge5" class="edge"><title>B&#45;&gt;E</title>
<path fill="none" stroke="black" d="M87.4803,-172.404C82.8701,-160.669 76.5948,-144.696 71.3102,-131.244"/>
<polygon fill="black" stroke="black" points="74.4204,-129.589 67.5062,-121.561 67.9051,-132.149 74.4204,-129.589"/>
<text text-anchor="middle" x="88.75" y="-142.8" font-family="Times,serif" font-size="14.00">0.5</text>
</g>
<!-- C&#45;&gt;A -->
<g id="edge3" class="edge"><title>C&#45;&gt;A</title>
<path fill="none" stroke="black" d="M128.465,-35.9857C129.805,-41.6754 131.144,-48.0778 132,-54 134.039,-68.1034 133.292,-71.7676 134,-86 136.854,-143.359 139.076,-210.565 140.197,-247.387"/>
<polygon fill="black" stroke="black" points="136.711,-247.904 140.509,-257.794 143.708,-247.694 136.711,-247.904"/>
<text text-anchor="middle" x="140.5" y="-142.8" font-family="Times,serif" font-size="14.00">1</text>
</g>
<!-- D -->
<g id="node4" class="node"><title>D</title>
<ellipse fill="none" stroke="black" cx="27" cy="-18" rx="27" ry="18"/>
<text text-anchor="middle" x="27" y="-13.8" font-family="Times,serif" font-size="14.00">D</text>
</g>
<!-- D&#45;&gt;B -->
<g id="edge4" class="edge"><title>D&#45;&gt;B</title>
<path fill="none" stroke="black" d="M20.7453,-35.5355C13.8235,-56.6097 5.22067,-93.6978 18,-122 27.6776,-143.433 47.9754,-160.753 65.1612,-172.41"/>
<polygon fill="black" stroke="black" points="63.4921,-175.499 73.7919,-177.982 67.2888,-169.618 63.4921,-175.499"/>
<text text-anchor="middle" x="21.5" y="-99.8" font-family="Times,serif" font-size="14.00">1</text>
</g>
<!-- E&#45;&gt;C -->
<g id="edge7" class="edge"><title>E&#45;&gt;C</title>
<path fill="none" stroke="black" d="M70.5828,-86.6684C76.5235,-76.9222 84.5219,-64.4496 92.5,-54 95.7649,-49.7237 99.4329,-45.333 103.081,-41.1693"/>
<polygon fill="black" stroke="black" points="105.868,-43.3044 109.961,-33.5319 100.667,-38.6194 105.868,-43.3044"/>
<text text-anchor="middle" x="101.75" y="-56.8" font-family="Times,serif" font-size="14.00">0.5</text>
</g>
<!-- E&#45;&gt;D -->
<g id="edge6" class="edge"><title>E&#45;&gt;D</title>
<path fill="none" stroke="black" d="M54.2827,-86.4043C49.4862,-74.5542 42.9404,-58.3822 37.4628,-44.8493"/>
<polygon fill="black" stroke="black" points="40.6997,-43.5175 33.7034,-35.5612 34.211,-46.1439 40.6997,-43.5175"/>
<text text-anchor="middle" x="55.75" y="-56.8" font-family="Times,serif" font-size="14.00">0.5</text>
</g>
</g>
</svg>
