<?xml version="1.0" encoding="UTF-8" standalone="no"?>
<!DOCTYPE svg PUBLIC "-//W3C//DTD SVG 1.1//EN"
 "http://www.w3.org/Graphics/SVG/1.1/DTD/svg11.dtd">
<!-- Generated by graphviz version 2.36.0 (20140111.2315)
 -->
<!-- Title: DirectedSample Pages: 1 -->
<svg width="165pt" height="302pt"
 viewBox="0.00 0.00 165.00 302.00" xmlns="http://www.w3.org/2000/svg" xmlns:xlink="http://www.w3.org/1999/xlink">
<g id="graph0" class="graph" transform="scale(1 1) rotate(0) translate(4 298)">
<title>DirectedSample</title>
<polygon fill="white" stroke="none" points="-4,4 -4,-298 161,-298 161,4 -4,4"/>
<!-- A -->
<g id="node1" class="node"><title>A</title>
<ellipse fill="none" stroke="black" cx="130" cy="-276" rx="27" ry="18"/>
<text text-anchor="middle" x="130" y="-271.8" font-family="Times,serif" font-size="14.00">A</text>
</g>
<!-- B -->
<g id="node2" class="node"><title>B</title>
<ellipse fill="none" stroke="black" cx="89" cy="-190" rx="27" ry="18"/>
<text text-anchor="middle" x="89" y="-185.8" font-family="Times,serif" font-size="14.00">B</text>
</g>
<!-- A&#45;&gt;B -->
<g id="edge1" class="edge"><title>A&#45;&gt;B</title>
<path fill="none" stroke="black" d="M121.9,-258.404C116.078,-246.477 108.12,-230.172 101.488,-216.586"/>
<polygon fill="black" stroke="black" points="104.476,-214.727 96.9439,-207.275 98.185,-217.797 104.476,-214.727"/>
<text text-anchor="middle" x="114.5" y="-228.8" font-family="Times,serif" font-size="14.00">1</text>
</g>
<!-- C -->
<g id="node3" class="node"><title>C</title>
<ellipse fill="none" stroke="black" cx="120" cy="-18" rx="27" ry="18"/>
<text text-anchor="middle" x="120" y="-13.8" font-family="Times,serif" font-size="14.00">C</text>
</g>
<!-- B&#45;&gt;C -->
<g id="edge2" class="edge"><title>B&#45;&gt;C</title>
<path fill="none" stroke="black" d="M92.0857,-172.078C97.4569,-142.624 108.568,-81.6941 115.034,-46.2308"/>
<polygon fill="black" stroke="black" points="118.53,-46.5713 116.881,-36.1056 111.643,-45.3155 118.53,-46.5713"/>
<text text-anchor="middle" x="110.5" y="-99.8" font-family="Times,serif" font-size="14.00">2</text>
</g>
<!-- E -->
<g id="node5" class="node"><title>E</title>
<ellipse fill="none" stroke="black" cx="57" cy="-104" rx="27" ry="18"/>
<text text-anchor="middle" x="57" y="-99.8" font-family="Times,serif" font-size="14.00">E</text>
</g>
<!-- B&#45;&gt;E -->
<g id="edge5" class="edge"><title>B&#45;&gt;E</title>
<path fill="none" stroke="black" d="M82.6778,-172.404C78.2073,-160.669 72.1222,-144.696 66.9978,-131.244"/>
<polygon fill="black" stroke="black" points="70.1398,-129.66 63.309,-121.561 63.5983,-132.152 70.1398,-129.66"/>
<text text-anchor="middle" x="77.5" y="-142.8" font-family="Times,serif" font-size="14.00">2</text>
</g>
<!-- C&#45;&gt;A -->
<g id="edge3" class="edge"><title>C&#45;&gt;A</title>
<path fill="none" stroke="black" d="M123.451,-36.0207C124.462,-41.7127 125.445,-48.1077 126,-54 132.542,-123.441 131.811,-205.68 130.837,-247.54"/>
<polygon fill="black" stroke="black" points="127.332,-247.671 130.575,-257.757 134.33,-247.85 127.332,-247.671"/>
<text text-anchor="middle" x="134.5" y="-142.8" font-family="Times,serif" font-size="14.00">4</text>
</g>
<!-- D -->
<g id="node4" class="node"><title>D</title>
<ellipse fill="none" stroke="black" cx="27" cy="-18" rx="27" ry="18"/>
<text text-anchor="middle" x="27" y="-13.8" font-family="Times,serif" font-size="14.00">D</text>
</g>
<!-- D&#45;&gt;B -->
<g id="edge4" class="edge"><title>D&#45;&gt;B</title>
<path fill="none" stroke="black" d="M19.7694,-35.4856C11.6768,-56.5071 1.26168,-93.5395 14,-122 23.4754,-143.17 43.3128,-160.411 60.2065,-172.1"/>
<polygon fill="black" stroke="black" points="58.426,-175.118 68.702,-177.697 62.2774,-169.273 58.426,-175.118"/>
<text text-anchor="middle" x="17.5" y="-99.8" font-family="Times,serif" font-size="14.00">3</text>
</g>
<!-- E&#45;&gt;C -->
<g id="edge7" class="edge"><title>E&#45;&gt;C</title>
<path fill="none" stroke="black" d="M68.5552,-87.5931C78.0575,-74.9234 91.6733,-56.769 102.51,-42.3194"/>
<polygon fill="black" stroke="black" points="105.318,-44.4093 108.518,-34.3092 99.718,-40.2092 105.318,-44.4093"/>
<text text-anchor="middle" x="95.5" y="-56.8" font-family="Times,serif" font-size="14.00">5</text>
</g>
<!-- E&#45;&gt;D -->
<g id="edge6" class="edge"><title>E&#45;&gt;D</title>
<path fill="none" stroke="black" d="M51.073,-86.4043C46.9091,-74.7454 41.2511,-58.9031 36.4666,-45.5066"/>
<polygon fill="black" stroke="black" points="39.6769,-44.089 33.0174,-35.8487 33.0847,-46.4434 39.6769,-44.089"/>
<text text-anchor="middle" x="46.5" y="-56.8" font-family="Times,serif" font-size="14.00">1</text>
</g>
</g>
</svg>
