<?xml version="1.0" encoding="UTF-8" standalone="no"?>
<!DOCTYPE svg PUBLIC "-//W3C//DTD SVG 1.1//EN"
 "http://www.w3.org/Graphics/SVG/1.1/DTD/svg11.dtd">
<!-- Generated by graphviz version 2.36.0 (20140111.2315)
 -->
<!-- Title: DirectedSample Pages: 1 -->
<svg width="163pt" height="260pt"
 viewBox="0.00 0.00 163.00 260.00" xmlns="http://www.w3.org/2000/svg" xmlns:xlink="http://www.w3.org/1999/xlink">
<g id="graph0" class="graph" transform="scale(1 1) rotate(0) translate(4 256)">
<title>DirectedSample</title>
<polygon fill="white" stroke="none" points="-4,4 -4,-256 159,-256 159,4 -4,4"/>
<!-- A -->
<g id="node1" class="node"><title>A</title>
<ellipse fill="none" stroke="black" cx="128" cy="-234" rx="27" ry="18"/>
<text text-anchor="middle" x="128" y="-229.8" font-family="Times,serif" font-size="14.00">A</text>
</g>
<!-- B -->
<g id="node2" class="node"><title>B</title>
<ellipse fill="none" stroke="black" cx="82" cy="-162" rx="27" ry="18"/>
<text text-anchor="middle" x="82" y="-157.8" font-family="Times,serif" font-size="14.00">B</text>
</g>
<!-- A&#45;&gt;B -->
<g id="edge1" class="edge"><title>A&#45;&gt;B</title>
<path fill="none" stroke="black" d="M117.562,-217.116C111.798,-208.345 104.516,-197.264 98.045,-187.416"/>
<polygon fill="black" stroke="black" points="100.814,-185.256 92.3968,-178.821 94.9637,-189.1 100.814,-185.256"/>
</g>
<!-- C -->
<g id="node3" class="node"><title>C</title>
<ellipse fill="none" stroke="black" cx="118" cy="-18" rx="27" ry="18"/>
<text text-anchor="middle" x="118" y="-13.8" font-family="Times,serif" font-size="14.00">C</text>
</g>
<!-- B&#45;&gt;C -->
<g id="edge2" class="edge"><title>B&#45;&gt;C</title>
<path fill="none" stroke="black" d="M87.7905,-144.417C91.2993,-134.031 95.7165,-120.325 99,-108 104.456,-87.5182 109.412,-64.0616 112.893,-46.3729"/>
<polygon fill="black" stroke="black" points="116.401,-46.665 114.861,-36.1827 109.528,-45.3374 116.401,-46.665"/>
</g>
<!-- E -->
<g id="node5" class="node"><title>E</title>
<ellipse fill="none" stroke="black" cx="63" cy="-90" rx="27" ry="18"/>
<text text-anchor="middle" x="63" y="-85.8" font-family="Times,serif" font-size="14.00">E</text>
</g>
<!-- B&#45;&gt;E -->
<g id="edge5" class="edge"><title>B&#45;&gt;E</title>
<path fill="none" stroke="black" d="M77.4006,-144.055C75.2535,-136.145 72.6465,-126.54 70.2439,-117.688"/>
<polygon fill="black" stroke="black" points="73.5544,-116.523 67.557,-107.789 66.7988,-118.357 73.5544,-116.523"/>
</g>
<!-- C&#45;&gt;A -->
<g id="edge3" class="edge"><title>C&#45;&gt;A</title>
<path fill="none" stroke="black" d="M118.805,-36.2325C120.539,-73.3243 124.635,-160.981 126.725,-205.712"/>
<polygon fill="black" stroke="black" points="123.236,-206.024 127.199,-215.849 130.228,-205.697 123.236,-206.024"/>
</g>
<!-- D -->
<g id="node4" class="node"><title>D</title>
<ellipse fill="none" stroke="black" cx="27" cy="-18" rx="27" ry="18"/>
<text text-anchor="middle" x="27" y="-13.8" font-family="Times,serif" font-size="14.00">D</text>
</g>
<!-- D&#45;&gt;B -->
<g id="edge4" class="edge"><title>D&#45;&gt;B</title>
<path fill="none" stroke="black" d="M23.2191,-35.8484C19.9091,-54.347 17.0259,-84.5372 27,-108 32.829,-121.712 44.1362,-133.597 54.99,-142.618"/>
<polygon fill="black" stroke="black" points="53.0642,-145.554 63.1034,-148.94 57.3669,-140.033 53.0642,-145.554"/>
</g>
<!-- E&#45;&gt;C -->
<g id="edge7" class="edge"><title>E&#45;&gt;C</title>
<path fill="none" stroke="black" d="M74.9342,-73.811C82.2136,-64.5464 91.6626,-52.5203 99.8544,-42.0944"/>
<polygon fill="black" stroke="black" points="102.663,-44.1849 106.089,-34.1593 97.1587,-39.8601 102.663,-44.1849"/>
</g>
<!-- E&#45;&gt;D -->
<g id="edge6" class="edge"><title>E&#45;&gt;D</title>
<path fill="none" stroke="black" d="M54.6504,-72.7646C50.2885,-64.2831 44.8531,-53.7144 39.9587,-44.1974"/>
<polygon fill="black" stroke="black" points="42.9904,-42.4395 35.3043,-35.1473 36.7654,-45.6409 42.9904,-42.4395"/>
</g>
</g>
</svg>
